<?xml version="1.0" encoding="utf-8"?>
<!-- Generator: Adobe Illustrator 16.0.0, SVG Export Plug-In . SVG Version: 6.00 Build 0)  -->
<!DOCTYPE svg PUBLIC "-//W3C//DTD SVG 1.1//EN" "http://www.w3.org/Graphics/SVG/1.1/DTD/svg11.dtd">
<svg version="1.1" id="Layer_1" xmlns="http://www.w3.org/2000/svg" xmlns:xlink="http://www.w3.org/1999/xlink" x="0px" y="0px"
	 width="42px" height="42px" viewBox="0 0 42 42" enable-background="new 0 0 42 42" xml:space="preserve">
<g>
	<path fill-rule="evenodd" clip-rule="evenodd" fill="#5E5D5E" d="M20.958,0C9.439,0,0.099,9.63,0.099,21.51
		c0,9.503,5.977,17.567,14.265,20.411c1.042,0.199,1.425-0.466,1.425-1.034c0-0.514-0.019-2.208-0.029-4.006
		c-5.802,1.302-7.027-2.536-7.027-2.536c-0.949-2.487-2.316-3.147-2.316-3.147c-1.893-1.335,0.143-1.309,0.143-1.309
		c2.094,0.152,3.197,2.218,3.197,2.218c1.86,3.288,4.88,2.337,6.07,1.788c0.187-1.392,0.728-2.341,1.324-2.878
		c-4.632-0.542-9.503-2.389-9.503-10.631c0-2.346,0.815-4.267,2.149-5.771C9.581,14.071,8.866,11.884,10,8.921
		c0,0,1.752-0.579,5.737,2.205c1.665-0.478,3.449-0.717,5.222-0.725c1.774,0.008,3.557,0.247,5.225,0.725
		c3.982-2.784,5.731-2.205,5.731-2.205c1.135,2.963,0.42,5.149,0.203,5.693c1.338,1.505,2.147,3.425,2.147,5.771
		c0,8.264-4.878,10.083-9.523,10.615c0.749,0.666,1.413,1.975,1.413,3.983c0,2.877-0.023,5.194-0.023,5.902
		c0,0.573,0.375,1.243,1.434,1.031c8.283-2.846,14.253-10.907,14.253-20.408C41.818,9.63,32.479,0,20.958,0z"/>
	<path fill="#5E5D5E" d="M8,30.884c-0.046,0.107-0.209,0.139-0.359,0.064c-0.151-0.069-0.235-0.215-0.187-0.321
		c0.045-0.109,0.209-0.141,0.36-0.067C7.965,30.629,8.052,30.777,8,30.884L8,30.884z M7.743,30.688"/>
	<path fill="#5E5D5E" d="M8.845,31.856c-0.1,0.096-0.294,0.051-0.427-0.099c-0.136-0.15-0.161-0.351-0.061-0.448
		c0.102-0.096,0.292-0.05,0.428,0.099C8.922,31.56,8.948,31.759,8.845,31.856L8.845,31.856z M8.646,31.637"/>
	<path fill="#5E5D5E" d="M9.667,33.094C9.539,33.187,9.33,33.102,9.2,32.91c-0.127-0.193-0.127-0.423,0.003-0.515
		c0.129-0.089,0.335-0.008,0.466,0.182C9.797,32.771,9.797,33.002,9.667,33.094L9.667,33.094z M9.667,33.094"/>
	<path fill="#5E5D5E" d="M10.794,34.293c-0.115,0.129-0.359,0.092-0.537-0.083c-0.183-0.174-0.233-0.421-0.119-0.55
		c0.116-0.132,0.361-0.094,0.541,0.083C10.86,33.915,10.916,34.164,10.794,34.293L10.794,34.293z M10.794,34.293"/>
	<path fill="#5E5D5E" d="M12.348,34.986c-0.051,0.169-0.286,0.244-0.521,0.174c-0.236-0.074-0.391-0.271-0.343-0.441
		c0.049-0.169,0.284-0.249,0.522-0.173C12.242,34.62,12.397,34.814,12.348,34.986L12.348,34.986z M12.348,34.986"/>
	<path fill="#5E5D5E" d="M14.055,35.116c0.006,0.176-0.194,0.324-0.442,0.326c-0.25,0.006-0.452-0.137-0.455-0.312
		c0-0.179,0.196-0.325,0.445-0.33C13.852,34.796,14.055,34.94,14.055,35.116L14.055,35.116z M14.055,35.116"/>
	<path fill="#5E5D5E" d="M15.644,34.837c0.03,0.172-0.142,0.352-0.389,0.396c-0.242,0.048-0.466-0.062-0.497-0.231
		c-0.03-0.176,0.146-0.355,0.386-0.402C15.391,34.557,15.612,34.66,15.644,34.837L15.644,34.837z M15.644,34.837"/>
</g>
</svg>
