<?xml version="1.0" encoding="utf-8"?>
<!-- Generator: Adobe Illustrator 16.0.0, SVG Export Plug-In . SVG Version: 6.00 Build 0)  -->
<!DOCTYPE svg PUBLIC "-//W3C//DTD SVG 1.1//EN" "http://www.w3.org/Graphics/SVG/1.1/DTD/svg11.dtd">
<svg version="1.1" id="Layer_1" xmlns="http://www.w3.org/2000/svg" xmlns:xlink="http://www.w3.org/1999/xlink" x="0px" y="0px"
	 width="42px" height="42px" viewBox="0 0 42 42" enable-background="new 0 0 42 42" xml:space="preserve">
<ellipse fill="#6D6969" cx="21" cy="20.795" rx="21" ry="20.793"/>
<g>
	<path fill="#FFFFFF" d="M10.113,10.529c0.049,1.522-1.077,2.741-2.872,2.741c-1.587,0-2.716-1.219-2.716-2.741
		c0-1.574,1.178-2.792,2.82-2.792C9.037,7.737,10.113,8.955,10.113,10.529z M5.089,42V17.432H9.6V42H5.089z"/>
	<path fill="#FFFFFF" d="M17.083,24.081c0-2.538-0.051-4.619-0.204-6.649h3.998l0.257,4.061h0.103
		c1.23-2.334,4.101-4.618,8.202-4.618c3.432,0,8.764,2.029,8.764,10.456V42h-4.509V27.837c0-3.959-1.486-7.258-5.741-7.258
		c-2.975,0-5.282,2.081-6.048,4.568c-0.208,0.558-0.31,1.319-0.31,2.082V42h-4.511V24.081z"/>
</g>
</svg>
