<?xml version="1.0" encoding="utf-8"?>
<!-- Generator: Adobe Illustrator 16.0.0, SVG Export Plug-In . SVG Version: 6.00 Build 0)  -->
<!DOCTYPE svg PUBLIC "-//W3C//DTD SVG 1.1//EN" "http://www.w3.org/Graphics/SVG/1.1/DTD/svg11.dtd">
<svg version="1.1" id="Layer_1" xmlns="http://www.w3.org/2000/svg" xmlns:xlink="http://www.w3.org/1999/xlink" x="0px" y="0px"
	 width="42px" height="42px" viewBox="0 0 42 42" enable-background="new 0 0 42 42" xml:space="preserve">
<ellipse fill="#FFFFFF" cx="21.135" cy="21.48" rx="20.684" ry="21.48"/>
<g>
	<path fill-rule="evenodd" clip-rule="evenodd" fill="#5E5D5E" d="M20.957,0C9.357,0-0.049,9.605-0.049,21.452
		c0,9.479,6.019,17.521,14.365,20.357c1.05,0.199,1.435-0.465,1.435-1.031c0-0.513-0.019-2.203-0.029-3.995
		c-5.843,1.298-7.076-2.529-7.076-2.529c-0.956-2.48-2.333-3.14-2.333-3.14c-1.906-1.331,0.144-1.306,0.144-1.306
		c2.109,0.152,3.219,2.212,3.219,2.212c1.874,3.28,4.915,2.331,6.113,1.784c0.188-1.388,0.733-2.335,1.333-2.87
		c-4.665-0.541-9.57-2.383-9.57-10.603c0-2.34,0.821-4.255,2.165-5.756c-0.218-0.542-0.938-2.723,0.204-5.678
		c0,0,1.765-0.577,5.778,2.199c1.677-0.477,3.473-0.715,5.258-0.723c1.787,0.008,3.583,0.247,5.262,0.723
		c4.01-2.776,5.771-2.199,5.771-2.199c1.143,2.955,0.423,5.136,0.204,5.678c1.348,1.501,2.163,3.417,2.163,5.756
		c0,8.242-4.912,10.056-9.591,10.587c0.755,0.664,1.424,1.969,1.424,3.973c0,2.869-0.024,5.18-0.024,5.887
		c0,0.571,0.378,1.24,1.444,1.028c8.341-2.838,14.353-10.878,14.353-20.354C41.963,9.605,32.558,0,20.957,0z"/>
	<path fill="#5E5D5E" d="M7.907,30.801c-0.046,0.108-0.21,0.14-0.361,0.065c-0.152-0.07-0.237-0.215-0.188-0.32
		c0.045-0.109,0.21-0.141,0.363-0.068C7.873,30.548,7.959,30.695,7.907,30.801L7.907,30.801z M7.648,30.606"/>
	<path fill="#5E5D5E" d="M8.758,31.772c-0.1,0.095-0.296,0.05-0.43-0.1c-0.137-0.149-0.162-0.35-0.061-0.446
		c0.103-0.097,0.293-0.05,0.431,0.098C8.835,31.476,8.862,31.674,8.758,31.772L8.758,31.772z M8.558,31.553"/>
	<path fill="#5E5D5E" d="M9.586,33.005c-0.128,0.094-0.339,0.009-0.47-0.183c-0.128-0.192-0.128-0.421,0.003-0.514
		c0.13-0.088,0.338-0.007,0.469,0.182C9.717,32.683,9.717,32.914,9.586,33.005L9.586,33.005z M9.586,33.005"/>
	<path fill="#5E5D5E" d="M10.722,34.201c-0.116,0.129-0.362,0.093-0.541-0.082c-0.184-0.173-0.235-0.42-0.12-0.549
		c0.117-0.131,0.363-0.093,0.545,0.083C10.788,33.824,10.843,34.073,10.722,34.201L10.722,34.201z M10.722,34.201"/>
	<path fill="#5E5D5E" d="M12.286,34.894c-0.051,0.168-0.288,0.243-0.525,0.173c-0.238-0.074-0.394-0.271-0.345-0.439
		s0.286-0.249,0.525-0.173C12.179,34.527,12.335,34.722,12.286,34.894L12.286,34.894z M12.286,34.894"/>
	<path fill="#5E5D5E" d="M14.005,35.022c0.006,0.176-0.196,0.323-0.445,0.325c-0.252,0.006-0.455-0.136-0.458-0.311
		c0-0.179,0.197-0.324,0.448-0.329C13.8,34.703,14.005,34.847,14.005,35.022L14.005,35.022z M14.005,35.022"/>
	<path fill="#5E5D5E" d="M15.605,34.744c0.03,0.172-0.144,0.351-0.392,0.396c-0.244,0.048-0.47-0.062-0.501-0.23
		c-0.03-0.176,0.147-0.355,0.389-0.402C15.351,34.465,15.573,34.568,15.605,34.744L15.605,34.744z M15.605,34.744"/>
</g>
</svg>
