<?xml version="1.0" encoding="utf-8"?>
<!-- Generator: Adobe Illustrator 16.0.0, SVG Export Plug-In . SVG Version: 6.00 Build 0)  -->
<!DOCTYPE svg PUBLIC "-//W3C//DTD SVG 1.1//EN" "http://www.w3.org/Graphics/SVG/1.1/DTD/svg11.dtd">
<svg version="1.1" id="Layer_1" xmlns="http://www.w3.org/2000/svg" xmlns:xlink="http://www.w3.org/1999/xlink" x="0px" y="0px"
	 width="42px" height="42px" viewBox="0 0 42 42" enable-background="new 0 0 42 42" xml:space="preserve">
<g>
	<ellipse fill="#6D6969" cx="20.635" cy="21.045" rx="20.635" ry="21.045"/>
	<g id="twitter">
		<path fill="#FFFFFF" d="M38.604,10.542c0.277-0.959-0.04-1.996-0.812-2.62c-0.436-0.356-0.966-0.536-1.501-0.536
			c-0.423,0-0.846,0.113-1.227,0.344c-0.755,0.451-1.544,0.814-2.37,1.07c-1.574-1.229-3.528-1.913-5.538-1.913
			c-4.604,0-8.417,3.502-9.017,8.031c-3.672-0.801-7.016-2.863-9.425-5.877C8.257,8.463,7.568,8.134,6.849,8.134
			c-0.06,0-0.125,0.005-0.189,0.009C5.872,8.206,5.166,8.659,4.769,9.354c-0.81,1.414-1.235,3.026-1.235,4.67
			c0,1.109,0.193,2.189,0.55,3.196c-0.384,0.445-0.607,1.022-0.607,1.634c0,2.435,0.901,4.671,2.402,6.354
			c-0.092,0.419-0.078,0.864,0.056,1.287c0.521,1.66,1.47,3.088,2.7,4.178c-0.799,0.184-1.625,0.278-2.462,0.278
			c-0.435,0-0.874-0.029-1.318-0.078c-0.093-0.013-0.186-0.02-0.281-0.02c-1.008,0-1.921,0.646-2.264,1.635
			c-0.38,1.075,0.022,2.277,0.963,2.896c3.461,2.26,7.459,3.454,11.562,3.454c13.308,0,21.305-10.922,21.449-21.585
			c1.082-0.94,2.035-2.023,2.842-3.231c0.305-0.412,0.485-0.922,0.485-1.481C39.61,11.72,39.215,10.99,38.604,10.542z
			 M33.854,16.077c0.017,0.293,0.021,0.587,0.021,0.882c0,9.02-6.73,19.42-19.04,19.42c-3.778,0-7.296-1.131-10.259-3.067
			c0.521,0.06,1.057,0.098,1.597,0.098c3.136,0,6.021-1.093,8.311-2.925c-2.931-0.054-5.4-2.028-6.253-4.74
			c0.409,0.08,0.83,0.125,1.257,0.125c0.611,0,1.204-0.085,1.763-0.241c-3.062-0.63-5.37-3.385-5.37-6.695c0-0.029,0-0.056,0-0.085
			c0.903,0.51,1.936,0.817,3.032,0.853c-1.795-1.225-2.974-3.316-2.974-5.683c0-1.25,0.329-2.421,0.905-3.429
			c3.298,4.129,8.231,6.845,13.794,7.129c-0.115-0.497-0.172-1.021-0.172-1.555c0-3.767,2.996-6.822,6.691-6.822
			c1.924,0,3.665,0.828,4.887,2.152c1.521-0.304,2.957-0.873,4.249-1.655c-0.5,1.592-1.562,2.93-2.942,3.774
			c1.352-0.162,2.64-0.53,3.842-1.075C36.296,13.913,35.163,15.115,33.854,16.077z"/>
	</g>
</g>
</svg>
